<svg width="195" height="704" viewBox="0 0 195 704" fill="none" xmlns="http://www.w3.org/2000/svg">
<path d="M156.156 0.00512695L156.712 385.289L156.156 395.752L106.8 446.465C96.3668 458.919 78.2063 476.858 55.3741 499.461C44.8755 509.031 31.6207 512.458 22.058 508.717C15.2807 506.066 10.5797 500.582 10.5797 500.582C9.57081 499.403 7.12171 496.357 5.39632 491.752C4.40934 489.116 2.79361 483.646 3.83908 476.887C4.26312 474.127 5.02341 471.894 5.65216 470.342C6.78536 467.369 10.3019 459.352 18.6949 455.017C29.6906 449.335 44.5539 452.307 55.2352 462.866C61.2302 469.075 67.2179 475.292 73.2129 481.501L87.7618 496.511C100.388 508.966 116.801 526.751 139.633 549.354C150.132 558.924 163.387 562.351 172.949 558.609C179.727 555.958 184.428 550.474 184.428 550.474C185.436 549.295 187.886 546.25 189.604 541.644C190.591 539.008 192.206 533.538 191.161 526.78C190.737 524.02 189.977 521.787 189.348 520.234C188.215 517.262 184.698 509.244 176.305 504.909C165.309 499.227 150.446 502.2 139.765 512.758C133.77 518.967 127.782 525.184 121.787 531.393L81.0796 571.562V703.505" stroke="#DAD2C3" stroke-width="7" stroke-miterlimit="10"/>
</svg>
