<svg width="353" height="352" viewBox="0 0 353 352" fill="none" xmlns="http://www.w3.org/2000/svg">
<path d="M184.057 103.23C186.248 105.48 200.385 119.518 201.611 120.152C202.561 120.64 202.958 120.539 203.656 119.745L222.716 99.8479L222.566 98.7544C221.738 98.435 220.865 98.1737 220.245 97.4721C211.09 87.0541 199.236 74.3812 209.709 60.2131C223.23 41.9272 251.683 52.9258 249.42 74.7828C248.921 79.5878 244.971 85.5202 242.112 89.3283C240.221 91.8397 233.742 97.5592 232.758 99.4657C232.438 100.09 232.215 100.462 232.758 101.072L252.371 120.442C259.98 114.81 268.17 104.546 278.188 103.506C299.865 101.251 310.644 128.774 293.575 142.333C277.606 155.015 264.599 140.175 253.069 130.187L232.758 149.644C232.002 150.588 232.671 150.97 233.165 151.686C237.571 158.088 248.068 164.935 253.074 171.472C259.263 165.08 268.786 157.662 278.202 157.662C288.646 157.662 296.536 165.361 304.028 171.429C314.395 161.441 326.559 148.406 342.077 157.077C355.041 164.316 356.824 182.979 345.494 192.545C333.761 202.46 323.002 197.413 312.64 188.892C310.91 187.474 306.117 181.629 304.789 181.281C302.657 180.724 300.84 183.995 299.255 185.214C289.504 192.739 281.74 197.684 269.149 192.661C263.455 190.387 258.027 185.568 253.481 181.547C252.536 180.782 252.153 181.46 251.436 181.953C245.383 186.11 239.005 195.952 232.773 200.621V202.228L253.084 222.449C263.159 212.37 275.314 199.436 290.677 207.589C304.833 215.099 306.006 236.114 292.664 244.988C276.903 255.469 263.76 242.075 253.084 231.382L232.433 252.029L232.424 253.205C233.33 253.292 234.275 253.698 234.891 254.366C245.034 265.413 256.864 279.286 244.181 293.691C233.296 306.05 212.777 302.304 207.145 286.956C203.069 275.846 208.633 268.365 215.423 260.119C217.095 258.087 223.187 253.563 222.61 251.356C221.878 248.569 205.696 235.538 203.239 231.725C202.294 230.97 201.911 231.638 201.194 232.132C194.782 236.53 187.925 247.011 181.372 252.01C195.044 266.313 200.506 278.894 187.372 296.048C186.248 297.519 181.203 301.632 181.421 302.885C191.302 313.429 204.606 325.976 195.48 341.368C181.45 365.03 142.64 345.554 158.827 318.534C160.896 315.074 171.302 304.593 171.549 303.645C172.135 301.399 167.376 298.336 165.98 296.507C155.701 283.055 155.149 272.608 165.627 258.963C166.969 257.216 171.665 253.597 171.665 252.014L152.178 231.735H150.569L130.316 252.014C139.926 261.828 153.152 274.757 145.199 289.549C137.309 304.23 116.591 304.903 107.252 291.209C96.9538 276.112 111.158 262.161 121.37 252.01L100.715 231.387C90.3725 241.33 75.877 255.774 61.0036 245.124C40.0141 230.099 57.2235 197.413 80.2824 206.452C87.5955 209.317 94.9765 217.185 100.715 222.454L121.026 202.233C121.782 201.289 121.113 200.907 120.619 200.191C116.213 193.789 105.716 186.942 100.71 180.405C84.9397 198.221 65.3653 198.502 49.6486 180.405C42.2386 187.624 31.1647 199.194 19.8872 198.003C0.807157 195.995 -6.57383 170.746 8.69701 158.92C24.5058 146.683 38.376 160.682 49.6486 171.467C65.1763 153.152 85.0657 153.462 100.71 171.467C105.716 164.925 116.208 158.078 120.619 151.681C121.113 150.965 121.777 150.583 121.026 149.639C117.202 147.186 104.155 131.024 101.364 130.299C99.1831 129.728 95.3303 135.075 93.4014 136.667C85.0803 143.528 77.0111 149.886 65.7143 145.739C42.1416 137.092 49.7989 101.551 74.8157 103.477C85.497 104.3 92.8053 114.5 100.603 120.442L121.37 99.8624C111.178 89.6912 97.768 77.1103 106.768 61.8002C115.52 46.9063 137.707 47.2741 145.325 63.01C152.871 78.5958 140.188 89.4154 130.316 99.8624L150.569 120.142H152.178L172.431 99.8624C162.04 90.209 154.611 78.4023 160.94 64.0987C163.455 58.4131 168.336 54.242 171.495 49.0064C162.098 37.5093 147.414 25.3155 158.808 9.36191C172.203 -9.39821 201.567 2.14723 198.31 25.3349C197.196 33.2851 186.815 43.1708 181.372 48.8758C199.309 64.8632 199.687 84.0008 181.406 99.8576C182.603 100.724 183.165 102.282 184.077 103.216L184.057 103.23ZM175.494 5.75699C172.009 6.0328 167.531 8.29253 165.098 10.8184C153.084 23.2977 168.006 36.4109 176.885 45.2321C182.734 39.0336 193.134 29.6559 192.742 20.5541C192.383 12.1394 183.795 5.10858 175.494 5.76183V5.75699ZM176.885 53.3517C160.455 66.552 160.814 82.8491 176.885 96.214C192.776 82.4814 193.643 66.8326 176.885 53.3517ZM123.609 56.7824C116.315 57.6872 109.365 64.96 109.356 72.3537C109.346 79.4281 120.061 91.4042 125.823 95.4494C128.726 95.4494 140.12 79.9604 141.085 76.67C144.298 65.7294 134.702 55.4033 123.609 56.7824ZM225.745 56.763C218.316 57.5711 210.736 65.56 211.279 73.157C211.764 79.9507 222.125 91.4719 227.805 95.3043C230.8 95.0381 242.48 79.4426 243.367 76.0216C246.163 65.2649 236.238 55.6211 225.745 56.763ZM125.121 104.382L104.354 124.961L125.819 146.393L146.43 125.073L125.121 104.382ZM176.187 104.382L155.42 124.961L176.885 146.393L197.496 125.073L176.187 104.382ZM227.248 104.382L206.481 124.961L227.946 146.393L248.557 125.073L227.248 104.382ZM70.0857 109.371C54.7809 111.848 52.2123 134.978 67.8903 140.31C72.8869 142.009 74.5588 141.791 79.2453 139.555C81.9398 138.268 96.5661 127.284 96.1784 125.068C89.7521 118.453 80.2921 107.716 70.0857 109.371ZM277.567 109.366C270.836 110.764 261.826 120.331 256.733 124.961C265.524 134.416 281.246 149.983 292.804 135.094C301.794 123.51 291.68 106.434 277.567 109.366ZM150.947 129.423L130.335 150.743L151.645 171.434L172.411 150.854L150.947 129.423ZM202.013 129.423L181.401 150.743L202.711 171.434L223.477 150.854L202.013 129.423ZM125.174 155.393L104.359 175.943L125.823 197.374L146.522 175.943C146.566 175.227 146.086 174.811 145.732 174.288C144.487 172.454 129.308 157.29 127.486 156.07C126.667 155.523 126.308 155.098 125.179 155.393H125.174ZM176.187 155.364L155.42 175.943L176.885 197.374L197.496 176.055L176.187 155.364ZM227.248 155.364L206.481 175.943L227.946 196.61C230.655 194.771 248.809 177.492 248.557 176.055L227.248 155.364ZM18.2055 160.348C0.0317421 164.103 4.25291 193.46 22.6884 192.332C27.1713 192.057 45.3451 179.495 45.0591 176.088C44.8604 173.742 32.7252 164.209 30.0258 162.753C25.8725 160.507 23.2215 159.317 18.2104 160.353L18.2055 160.348ZM328.643 160.357C321.766 161.528 312.805 171.158 307.799 175.938C315.383 183.129 325.076 195.27 336.727 191.074C354.222 184.774 348.164 157.038 328.643 160.357ZM71.7092 163.595C65.3411 164.688 57.6112 171.322 53.2979 175.943C62.3315 184.634 71.4329 192.299 84.3485 185.916C86.7425 184.731 96.7745 177.729 96.1542 175.295C95.7664 173.785 85.8411 166.667 83.8299 165.675C79.6136 163.599 76.5265 162.767 71.714 163.59L71.7092 163.595ZM276.816 163.57C269.111 164.33 262.001 170.761 256.738 175.943C268.165 187.663 276.676 193.813 291.845 183.492C294.03 182.006 300.617 177.574 298.92 175.106C295.3 169.851 283.383 162.922 276.816 163.57ZM151.058 180.453L130.335 201.729L151.645 222.42L172.368 201.144L151.058 180.453ZM206.753 217.906C212.34 212.583 218.263 207.575 223.477 201.841L202.013 180.41L181.401 201.729L201.615 222.12C203.83 223.262 205.526 219.072 206.757 217.906H206.753ZM125.823 205.494L104.359 226.925L125.823 247.592C128.756 245.593 146.517 228.575 146.522 226.925L125.823 205.494ZM188.923 235.708C190.706 233.869 198.17 228.938 197.467 226.282L177.534 206.379C176.526 206.002 175.983 206.549 175.227 207.057C168.922 211.286 161.905 222.062 155.42 226.93L176.235 247.48C178.842 248.168 186.815 237.88 188.918 235.712L188.923 235.708ZM232.933 210.618C231.784 209.52 227.955 206.021 226.739 206.646L206.486 226.925L227.253 247.505L248.606 226.925C242.979 222.125 238.157 215.622 232.937 210.618H232.933ZM69.2763 211.344C55.9489 213.614 52.8666 233.787 65.1521 240.967C73.5702 245.893 81.208 240.619 87.7021 235.398C89.3547 234.067 96.2269 228.053 95.8731 226.446C95.3594 224.114 81.9883 213.638 79.1193 212.452C75.6638 211.025 73.0516 210.696 69.2763 211.339V211.344ZM276.763 211.33C273.666 211.973 256.738 225.067 256.738 226.925C265.316 235.117 276.545 248.55 289.417 240.145C303.35 231.048 294.68 207.604 276.763 211.33ZM125.13 256.587C121.496 257.294 109.346 274.897 109.356 279.528C109.394 300.707 144.191 300.069 141.647 277.888C141.148 273.518 128.877 255.861 125.13 256.587ZM176.187 256.524C170.788 261.169 163.451 270.479 163.504 277.921C163.547 284.251 171.21 295.303 176.778 298.486C184.207 292.051 191.54 282.141 188.225 271.844C186.471 266.386 181.067 259.616 176.187 256.524ZM227.248 256.524C221.946 261.61 214.633 268.539 212.331 275.667C207.315 291.19 229.046 302.696 240.134 289.67C250.345 277.675 236.504 263.826 227.253 256.524H227.248ZM176.235 307.535C173.206 308.333 163.102 322.056 161.749 325.516C155.566 341.358 177.166 353.528 188.671 341.068C196.26 332.852 192.126 324.776 186.538 317.227C185.089 315.268 178.309 306.988 176.23 307.535H176.235Z" fill="#989086"/>
</svg>
