<svg width="171" height="178" viewBox="0 0 171 178" fill="#fff" xmlns="http://www.w3.org/2000/svg">
<path d="M57.6775 177.192L0.5 145.345C0.5 145.345 85.719 0.104004 85.5437 0.000198364C85.5437 0.000198364 85.5388 0.00506592 85.5339 0.0115509C84.9477 0.736557 100.751 28.6399 151.752 114.471C145.685 116.465 139.616 118.458 133.548 120.451L85.8993 38.8158L57.3105 134.728L57.6775 177.192Z" fill="#EAE4DC"/>
<path d="M115.566 177.093C133.878 166.294 152.189 155.494 170.5 144.695C167.135 138.913 163.77 133.131 160.406 127.349C145.459 131.824 130.513 136.3 115.566 140.775V177.093Z" fill="#EAE4DC"/>
<path d="M136.001 122.609C142.089 120.656 148.177 118.703 154.267 116.752L158.054 123.34C152.056 125.421 146.058 127.502 140.061 129.582C138.706 127.257 137.354 124.933 136.001 122.609Z" fill="#EAE4DC"/>
</svg>
