<svg xmlns="http://www.w3.org/2000/svg" width="58" height="68" viewBox="0 0 48 58" fill="none">
<mask id="mask0_5972_654" style="mask-type:luminance" maskUnits="userSpaceOnUse" x="0" y="0" width="48" height="58">
<path d="M0 0H47.2093V58H0V0Z" fill="white"/>
</mask>
<g mask="url(#mask0_5972_654)">
<path d="M18.2173 45.168L8.71875 39.8708C8.71875 39.8708 22.8756 15.7134 22.8465 15.6961C22.8465 15.6961 22.8457 15.697 22.8449 15.698C22.7475 15.8186 25.3728 20.4597 33.8452 34.7358C32.8373 35.0673 31.8292 35.3989 30.8211 35.7304L22.9055 22.1522L18.1563 38.1049L18.2173 45.168Z" fill="#171717"/>
<path d="M27.8359 45.4727C30.8778 43.6765 33.9197 41.8802 36.9616 40.0841C36.4027 39.1223 35.8437 38.1606 35.2848 37.1989C32.8018 37.9432 30.3189 38.6877 27.8359 39.432V45.4727Z" fill="#171717"/>
<path d="M31.2266 36.4106C32.2379 36.0858 33.2493 35.761 34.2609 35.4365L34.89 36.5322C33.8938 36.8784 32.8972 37.2245 31.901 37.5703C31.676 37.1837 31.4513 36.7972 31.2266 36.4106Z" fill="#171717"/>
</g>
</svg>