<svg width="214" height="981" viewBox="0 0 214 981" fill="none" xmlns="http://www.w3.org/2000/svg">
<path d="M171.584 0.00488281L172.196 432.114L171.584 443.849L117.239 500.725C105.752 514.693 85.7564 534.813 60.6167 560.163C49.0571 570.896 34.4627 574.739 23.9335 570.543C16.4713 567.57 11.2952 561.419 11.2952 561.419C10.1843 560.097 7.48774 556.681 5.58797 551.516C4.50124 548.56 2.72222 542.425 3.87335 534.845C4.34024 531.749 5.17737 529.245 5.86966 527.504C7.11739 524.17 10.9893 515.178 20.2305 510.317C32.3375 503.944 48.7029 507.278 60.4638 519.119C67.0646 526.083 73.6575 533.056 80.2584 540.019L96.2776 556.853C110.18 570.822 128.252 590.769 153.391 616.119C164.951 626.852 179.545 630.695 190.074 626.499C197.537 623.526 202.713 617.375 202.713 617.375C203.824 616.053 206.52 612.637 208.412 607.472C209.499 604.516 211.278 598.381 210.127 590.801C209.66 587.706 208.823 585.201 208.13 583.46C206.883 580.126 203.011 571.134 193.769 566.273C181.662 559.9 165.297 563.234 153.536 575.076C146.935 582.039 140.342 589.012 133.742 595.976L88.9201 641.026V981.005" stroke="#DAD2C3" stroke-width="7" stroke-miterlimit="10"/>
</svg>
